<svg width="81" height="78" viewBox="0 0 81 78" fill="none" xmlns="http://www.w3.org/2000/svg">
<ellipse cx="40.5" cy="39" rx="40.5" ry="39" fill="#00B6A3"/>
<path d="M37.0723 31.4932C36.281 33.3455 36.5328 35.4965 37.2522 37.3489C37.3601 37.5879 37.468 37.8567 37.54 38.0958C37.576 38.1555 37.6479 38.2451 37.7198 38.2153C37.7558 38.2153 37.7918 38.1555 37.8278 38.1256C38.9069 36.841 40.4897 35.9148 42.2523 35.4368C43.979 34.9588 46.1014 34.6301 46.7489 33.0169C46.8208 32.8675 46.8568 32.7181 46.8927 32.5687C47.0366 31.7919 46.7489 31.045 46.2812 30.3878L57.4326 20.2598C57.7564 19.991 57.7564 19.5428 57.4326 19.2441C57.1089 18.9453 56.5333 18.9154 56.1736 19.1843L43.9071 28.5355C41.1732 27.5496 38.0436 29.1629 37.0723 31.4932Z" fill="#F2FEFD"/>
<path d="M58.4757 40.3066H57.1807V25.0998C57.1807 24.5919 56.821 24.1438 56.2814 23.9347L54.0511 25.9363H54.5907V40.3066H27.18V25.9363H44.1228L46.9287 23.7853H26.1368C25.2735 23.7853 24.59 24.3828 24.59 25.0699V40.2768H23.295C22.5756 40.2768 22 40.7548 22 41.3523C22 41.9498 22.5756 42.4278 23.295 42.4278H31.3887L29.734 53.9898C29.6261 54.8263 30.4175 55.5433 31.4247 55.5433C32.288 55.5433 33.0434 55.0056 33.1154 54.2587L34.8061 42.4278H46.9287L48.6194 54.2587C48.6913 54.9757 49.4467 55.5433 50.31 55.5433C51.3173 55.5433 52.1087 54.8263 52.0007 53.9898L50.346 42.4278H58.4397C59.1592 42.4278 59.7347 41.9498 59.7347 41.3523C59.7347 40.7847 59.1592 40.3066 58.4757 40.3066Z" fill="#F2FEFD"/>
</svg>
