<svg width="29" height="28" viewBox="0 0 29 28" fill="none" xmlns="http://www.w3.org/2000/svg">
<path d="M14.6478 0.600586C6.89833 0.600586 0.621584 6.87733 0.621584 14.6268C0.619993 17.5713 1.54565 20.4416 3.26724 22.8303C4.98882 25.2191 7.41891 27.0051 10.2127 27.9349C10.914 28.057 11.1763 27.6362 11.1763 27.2673C11.1763 26.9349 11.1581 25.831 11.1581 24.6556C7.63471 25.305 6.723 23.7972 6.44248 23.0075C6.28398 22.6036 5.6009 21.3594 5.00479 21.0256C4.51387 20.7633 3.81256 20.1139 4.98655 20.0971C6.09182 20.0788 6.8801 21.114 7.14379 21.5348C8.40615 23.6555 10.4231 23.0594 11.2282 22.6919C11.3517 21.7802 11.7192 21.1673 12.1231 20.8166C9.00227 20.466 5.74116 19.2555 5.74116 13.8905C5.74116 12.3644 6.28398 11.1034 7.17885 10.1202C7.03859 9.76954 6.54767 8.33185 7.31912 6.40324C7.31912 6.40324 8.49311 6.03576 11.1763 7.84234C12.3182 7.52543 13.4979 7.36593 14.6829 7.36825C15.8751 7.36825 17.0674 7.52534 18.1895 7.84093C20.8713 6.01752 22.0467 6.40465 22.0467 6.40465C22.8181 8.33326 22.3272 9.77095 22.1869 10.1216C23.0804 11.1034 23.6246 12.3476 23.6246 13.8905C23.6246 19.2737 20.3467 20.466 17.2259 20.8166C17.7336 21.2542 18.1726 22.0958 18.1726 23.4115C18.1726 25.2868 18.1544 26.7946 18.1544 27.2687C18.1544 27.6362 18.4181 28.0738 19.1194 27.9335C21.9036 26.9935 24.323 25.204 26.037 22.817C27.751 20.4299 28.6733 17.5655 28.6741 14.6268C28.6741 6.87733 22.3973 0.600586 14.6478 0.600586Z" fill="black"/>
</svg>
