<svg width="81" height="78" viewBox="0 0 81 78" fill="none" xmlns="http://www.w3.org/2000/svg">
<ellipse cx="40.5" cy="39" rx="40.5" ry="39" fill="#00B6A3"/>
<path d="M31.5971 43.8917C31.5971 44.4951 31.3447 44.9993 30.8331 45.3987C30.3249 45.8038 29.6973 46.0248 28.9538 46.0616C28.5342 46.0899 28.2102 46.0956 27.9851 46.0814C27.6167 46.0814 27.1699 46.0418 26.6515 45.9625L26 49.5034C26.7265 49.7017 27.6713 49.8037 28.8344 49.8037C30.8365 49.8037 32.5453 49.223 33.9574 48.0644C35.3695 46.9029 36.0755 45.4866 36.0755 43.8096V24.3541H31.5971V43.8917Z" fill="#F2FEFD"/>
<path d="M47.5118 46.3251C46.8024 46.3505 46.1714 46.1154 45.6223 45.6169C44.8787 44.9568 44.4114 43.8917 44.217 42.4215L39.858 42.6821C39.9535 44.0248 40.2912 45.2146 40.8642 46.2542C41.4372 47.2939 42.2149 48.1154 43.204 48.7187C44.3807 49.4581 45.8678 49.8264 47.6619 49.8264C48.6306 49.8264 49.4764 49.7329 50.2029 49.5431C51.5604 49.1946 52.611 48.5969 53.3545 47.7528C54.4835 46.5064 55.0326 45.0022 54.9985 43.2458C54.9849 42.5348 54.7597 41.7303 54.3232 40.8295C54.1424 40.4669 53.9105 40.0703 53.6205 39.6426C53.0066 38.7304 52.1334 37.8069 51.0011 36.8664C50.6634 36.5718 49.9608 36.0563 48.8966 35.3169C47.9893 34.6994 47.3106 34.1668 46.8604 33.7107C45.6632 32.5153 45.0697 31.3425 45.0697 30.1896C45.0697 29.4503 45.2471 28.8327 45.6018 28.3398C46.0384 27.7223 46.6728 27.4135 47.5152 27.4135C48.3065 27.4135 48.9103 27.6203 49.3332 28.0395C49.913 28.6146 50.2677 29.4191 50.3974 30.453L54.7802 29.7902C54.6677 28.6911 54.33 27.7194 53.774 26.8753C53.2181 26.0283 52.4848 25.3739 51.5809 24.9037C50.4178 24.3003 49.0194 24 47.389 24C45.6939 24 44.2716 24.3569 43.1256 25.068C41.2667 26.2492 40.339 27.9857 40.339 30.2831C40.339 31.5578 40.68 32.7391 41.3588 33.8269C41.9898 34.7957 43.0608 35.8891 44.5786 37.1101C46.3863 38.5321 47.7438 39.6001 48.6476 40.3111C49.7936 41.345 50.3667 42.3847 50.3667 43.4328C50.3667 44.1608 50.2132 44.716 49.9062 45.107C49.3161 45.8888 48.5146 46.2967 47.5118 46.3251Z" fill="#F2FEFD"/>
</svg>
