<svg width="81" height="78" viewBox="0 0 81 78" fill="none" xmlns="http://www.w3.org/2000/svg">
<ellipse cx="40.5" cy="39" rx="40.5" ry="39" fill="#00B6A3"/>
<path d="M54.4499 49.4098C56.534 46.5179 57.6397 43.0726 57.6397 39.4575C57.6821 34.8217 55.9386 30.4835 52.706 27.2511C49.431 23.9334 45.1355 22.1472 40.4996 22.1472C31.0577 22.1472 23.317 29.8878 23.317 39.3297C23.317 48.7716 31.0151 56.5123 40.4996 56.5123C42.1583 56.5123 43.7319 56.2996 45.2205 55.8317L45.3057 55.7893L44.9654 54.0882L44.8378 54.1306C43.3919 54.5561 41.9031 54.8112 40.4147 54.8112C31.9085 54.8112 24.976 47.8786 24.976 39.3724C24.976 30.8663 31.9086 23.9336 40.4147 23.9336C48.9209 23.9336 55.8535 30.8663 55.8535 39.3724C55.8535 42.6474 54.8327 45.7945 52.8764 48.5166L52.8761 48.6017L54.3649 49.4523L54.4499 49.4098Z" fill="#F2FEFD"/>
<path d="M55.0453 25.0396C51.1749 21.1266 45.9862 19 40.4997 19C38.5859 19 36.7569 19.2551 35.0133 19.7654L34.9282 19.8078L35.226 21.3814L35.3536 21.339C37.0547 20.8711 38.7986 20.616 40.5 20.616C50.9202 20.616 59.4264 29.0797 59.4264 39.5423C59.4261 50.0058 50.9202 58.4262 40.5 58.4262C30.0799 58.3837 21.6162 49.8774 21.6162 39.4573C21.6162 35.502 22.8071 31.7591 25.1039 28.5268L25.1891 28.4416L23.7855 27.6335L23.7431 27.7186C21.276 31.1636 20 35.2467 20 39.4997C20 50.7705 29.1867 59.9572 40.4575 59.9572C51.7707 59.9572 61 50.7705 61 39.4997C61 34.0558 58.9161 28.9095 55.0458 25.0392L55.0453 25.0396Z" fill="#F2FEFD"/>
<path d="M37.1822 33.5032H36.5444C33.6948 33.5032 31.3979 35.7997 31.3979 38.6496C31.3979 41.4567 33.9072 43.3282 33.9923 43.413C34.1199 43.4982 34.2051 43.6257 34.2051 43.7109V47.1134C34.2051 48.0916 34.9705 48.8573 35.9489 48.9421C36.1616 49.1548 36.3743 49.2824 36.6295 49.3676H37.0549C37.2676 49.2824 37.4803 49.1548 37.6079 49.0273C38.5861 49.0273 39.3518 48.1767 39.3518 47.1986V43.796C39.3518 43.7109 39.4793 43.5833 39.6496 43.4982C39.7772 43.413 42.244 41.5416 42.244 38.7347C42.3707 35.8 39.989 33.5032 37.1822 33.5032V33.5032ZM34.8854 42.137C34.8854 42.137 32.9288 40.6059 32.9288 38.5645C32.9288 36.523 34.5451 34.9492 36.5441 34.9492H37.1819C39.2234 34.9492 40.7972 36.5654 40.7972 38.5645C40.7972 40.521 39.0534 41.9243 38.8407 42.0522C38.7131 42.1373 37.9473 42.69 37.9473 43.4981L37.9476 44.6039H35.6935V43.5406C35.7359 42.7324 34.8853 42.1371 34.8853 42.1371L34.8854 42.137ZM38.0328 46.2201V47.1134C38.0328 47.241 37.9052 47.4113 37.7349 47.4113H36.0762C35.9486 47.4113 35.7783 47.2837 35.7783 47.1134V46.2201H38.0328Z" fill="#F2FEFD"/>
<path d="M36.842 39.8829L37.7353 40.3507C37.8204 40.3507 37.8629 40.4359 37.948 40.4359C38.0331 40.4359 38.1607 40.4359 38.2031 40.3507C38.3307 40.2656 38.4159 40.0956 38.4159 39.9253L38.2031 38.9045L38.9685 38.2239C39.0961 38.0963 39.0961 37.9688 39.0961 37.756C39.011 37.6285 38.8834 37.5009 38.7558 37.5009L37.735 37.3736L37.2672 36.4803C37.182 36.3527 37.0544 36.2676 36.8417 36.2676C36.629 36.2676 36.5014 36.3527 36.4163 36.4803L35.9487 37.3736L34.9279 37.5012C34.8003 37.5012 34.5876 37.6288 34.5876 37.7563C34.5025 37.8839 34.5876 38.0966 34.7152 38.2242L35.4806 38.9048L35.2679 39.9256C35.2679 40.0532 35.353 40.2659 35.4806 40.351C35.6082 40.4362 35.8209 40.4786 35.9485 40.4362L36.842 39.8829Z" fill="#F2FEFD"/>
<path d="M46.6667 32.3974H44.4126C44.1147 32.3974 43.8171 32.6952 43.8171 32.9928L43.732 35.2893C43.732 35.4593 43.7744 35.6296 43.902 35.7572C44.0296 35.8848 44.1571 35.9272 44.3274 35.9272C44.4974 35.9272 44.6253 35.842 44.7953 35.7572C44.9229 35.6296 44.9653 35.502 44.9653 35.3318L45.0077 34.3961L45.2628 34.6512C46.624 36.0124 46.624 38.1389 45.2628 39.4998L44.0299 40.7761C42.3712 42.4348 42.2012 45.1992 43.732 47.0281C43.3066 47.7936 43.4769 48.772 44.0723 49.3674C44.8377 50.1328 46.1137 50.1328 46.9219 49.3674C47.7301 48.602 47.6873 47.326 46.9219 46.5179C46.3265 45.9224 45.3908 45.7524 44.6254 46.1351C43.5621 44.774 43.6897 42.8177 44.8805 41.6269L46.0714 40.436C47.9001 38.6074 47.8577 35.6726 46.0714 33.8864L45.9014 33.7164H46.6668C46.8368 33.7164 46.9647 33.6313 47.0922 33.5464C47.2198 33.4188 47.2622 33.2913 47.2622 33.121C47.2622 32.951 47.1771 32.8231 47.0922 32.6956C46.9644 32.4825 46.7944 32.3974 46.6668 32.3974L46.6667 32.3974ZM46.1137 48.4741C45.8159 48.772 45.3056 48.772 45.008 48.4741C44.7101 48.1763 44.7101 47.666 45.008 47.3684C45.3058 47.0706 45.8162 47.0706 46.1137 47.3684C46.454 47.7084 46.4116 48.1763 46.1137 48.4741Z" fill="#F2FEFD"/>
<path d="M50.3244 42.0945C50.3244 41.9245 50.282 41.7966 50.1544 41.669C50.0692 41.5839 49.8992 41.499 49.7289 41.499C49.559 41.499 49.4311 41.5415 49.3035 41.669L48.5805 42.392L47.8575 41.669C47.7724 41.5839 47.6024 41.499 47.4321 41.499C47.2621 41.499 47.1342 41.5415 47.0067 41.669C46.9215 41.7542 46.8367 41.9242 46.8367 42.0945C46.8367 42.2645 46.8791 42.3923 47.0494 42.5199L47.7724 43.2005L47.0494 43.881C46.9642 43.9662 46.8794 44.1362 46.8367 44.3065C46.8367 44.4765 46.8791 44.6043 47.0067 44.7319C47.0918 44.8171 47.2618 44.9019 47.4321 44.9019C47.6021 44.9019 47.73 44.8595 47.8575 44.7319L48.6657 44.0089L49.3887 44.7319C49.4738 44.8171 49.6438 44.9019 49.8141 44.9019C49.9841 44.9019 50.112 44.8595 50.2396 44.7319C50.4523 44.4768 50.4523 44.0941 50.2396 43.8814L49.5166 43.2008L50.2396 42.5202C50.2817 42.3921 50.3244 42.3072 50.3244 42.0945L50.3244 42.0945Z" fill="#F2FEFD"/>
<path d="M39.0537 32.0146C39.0537 32.1846 39.0961 32.3125 39.2237 32.44C39.3089 32.5252 39.4788 32.61 39.6491 32.61C39.8191 32.61 39.947 32.5676 40.0746 32.44L40.8827 31.717L41.6057 32.44C41.6909 32.5252 41.8609 32.61 42.0312 32.61C42.2012 32.61 42.329 32.5676 42.4566 32.44C42.5417 32.3549 42.6266 32.1849 42.6266 32.0146C42.6266 31.8446 42.5842 31.7167 42.4139 31.5892L41.6909 30.9086L42.4139 30.228C42.669 30.0153 42.669 29.5902 42.4139 29.3775C42.3287 29.2923 42.1587 29.2075 41.9884 29.2075C41.8184 29.2075 41.6906 29.2499 41.563 29.3775L40.7976 30.1432L40.0746 29.4202C39.9895 29.3351 39.8195 29.2502 39.6492 29.2502C39.4792 29.2502 39.3513 29.2926 39.2237 29.4202C39.1386 29.5054 39.0538 29.6753 39.0538 29.8456C39.0538 30.0156 39.0962 30.1435 39.2665 30.2711L39.9895 30.9516L39.2665 31.5892C39.0965 31.7168 39.0538 31.887 39.0538 32.0146L39.0537 32.0146Z" fill="#F2FEFD"/>
</svg>
